<?xml version="1.0" encoding="utf-8"?>
<!-- Generator: Adobe Illustrator 16.0.4, SVG Export Plug-In . SVG Version: 6.00 Build 0)  -->
<svg version="1.2" baseProfile="tiny" id="Layer_1" xmlns="http://www.w3.org/2000/svg" xmlns:xlink="http://www.w3.org/1999/xlink"
	 x="0px" y="0px" width="1417.32px" height="487.159px" viewBox="0 0 1417.32 487.159" xml:space="preserve">
<rect x="111.327" y="89.127" fill="#FFFFFF" width="37.545" height="180.684"/>
<rect x="375.312" y="43.291" fill="#FFFFFF" width="37.545" height="307.052"/>
<rect x="728.31" y="55.805" fill="#FFFFFF" width="37.544" height="258.432"/>
<rect x="546.218" y="102.327" fill="#FFFFFF" width="35.919" height="168.108"/>
<rect x="111.327" y="269.811" fill="#FFFFFF" width="37.545" height="80.532"/>
<rect x="1025.727" y="46.703" fill="#FFFFFF" width="35.918" height="190.06"/>
<rect x="1025.727" y="236.762" fill="#FFFFFF" width="35.918" height="111.234"/>
<rect x="60.876" y="52.99" fill="#FFFFFF" width="138.446" height="36.137"/>
<rect x="728.309" y="314.238" fill="#FFFFFF" width="106.925" height="36.104"/>
<g>
	<path fill="#FFFFFF" d="M1061.645,176.899c0-16.871,14.461-30.597,32.235-30.597h3.624c17.774,0,32.234,13.726,32.234,30.597
		v45.041h35.919v-45.041c0-36.736-30.514-66.516-68.153-66.516h-3.624c-37.641,0-68.154,29.78-68.154,66.516v58.495h35.919V176.899z
		"/>
	<path fill="#FFFFFF" d="M232.646,174.005c0-16.871,14.461-30.597,32.235-30.597h1.812v-35.919h-1.812
		c-37.64,0-68.154,29.78-68.154,66.516v81.725h35.919V174.005z"/>
	<path fill="#FFFFFF" d="M268.505,107.49h-1.812v35.918h1.812c17.775,0,32.236,13.726,32.236,30.598v62.953h35.918v-62.953
		C336.659,137.27,306.146,107.49,268.505,107.49"/>
	<path fill="#FFFFFF" d="M300.741,280.477c0,16.871-14.461,30.598-32.235,30.598h-1.812v35.918h1.811
		c37.641,0,68.155-29.779,68.155-66.516v-43.518h-35.919V280.477z"/>
	<path fill="#FFFFFF" d="M264.882,311.074c-17.775,0-32.235-13.727-32.235-30.598v-24.745h-35.919v24.745
		c0,36.735,30.513,66.516,68.154,66.516h1.812v-35.918H264.882z"/>
	<path fill="#FFFFFF" d="M394.554,185.647c0,0,20.881-1.259,39.891,0.734c35.263,3.697,79.327,20.943,79.156,102.356l0.263,61.604
		h-37.651v-80.689c0,0,2.66-43.646-48.651-47.713l-33.008-1.877V185.647z"/>
	<path fill="#FFFFFF" d="M477.621,102.327l31.913,12.142c0,0-25.812,110.287-122.959,107.471l-11.263,0.053V185.1
		c0,0,18.698,0.301,26.665-0.389C426.141,182.616,458.927,160.461,477.621,102.327"/>
	<path fill="#FFFFFF" d="M986.852,261.002c0-36.736-30.514-66.516-68.154-66.516h-3.624c-37.64,0-68.153,29.78-68.153,66.516v11.094
		l35.919,23.116v-27.809v-6.401c0-16.872,14.461-30.597,32.234-30.597h3.624c17.775,0,32.235,13.725,32.235,30.597v17.412h35.919
		V261.002z"/>
	<polygon fill="#FFFFFF" points="950.933,278.414 950.933,306.043 950.933,347.306 986.852,347.306 986.852,306.043 
		986.852,278.414 	"/>
	<path fill="#FFFFFF" d="M918.697,107.803h-3.623c-32.606,0-59.86,22.35-66.568,52.208l34.832,8.982
		c2.665-14.34,15.877-25.272,31.736-25.272h3.623c17.775,0,32.235,13.726,32.235,30.598v80.475h35.919v-80.475
		C986.852,137.583,956.338,107.803,918.697,107.803"/>
	<path fill="#FFFFFF" d="M1268.313,107.49h-1.812v35.918h1.812c17.774,0,32.235,13.726,32.235,30.598v1.069l35.568-7.849
		C1332.638,133.675,1303.608,107.49,1268.313,107.49"/>
	<path fill="#FFFFFF" d="M1264.689,311.074c-17.774,0-32.234-13.727-32.234-30.598v-3.682l-35.887,5.666
		c1.075,35.818,31.161,64.531,68.121,64.531h1.812v-35.918H1264.689z"/>
	<path fill="#FFFFFF" d="M1336.468,280.477v-7.851c0,0-0.015-16.874-20.035-35.667c-8.896-8.35-21.734-17.078-40.286-24.873
		c0,0-37.153-15.331-43.692-30.567c-0.854-1.994-1.909-10.732-1.909-10.732c0-16.872,16.37-27.379,34.146-27.379h1.811V107.49
		h-1.811c-37.642,0-68.155,29.78-68.155,66.516c0,0-3.69,31.275,35.919,56.504c4.677,2.979,10.174,5.937,16.474,9.03
		c0,0,52.376,18.194,52.382,45.601c0,0.26-0.017,0.516-0.026,0.773h34.956C1336.389,284.12,1336.468,282.308,1336.468,280.477"/>
	<path fill="#FFFFFF" d="M1301.283,285.914c-0.549,14.764-16.697,25.159-32.97,25.159h-1.812v35.92h1.812
		c35.764,0,65.091-26.888,67.926-61.079H1301.283z"/>
	<path fill="#FFFFFF" d="M1129.739,221.94v61.43c0,16.871-14.462,30.599-32.235,30.599h-1.812v35.918h1.812
		c37.64,0,68.154-29.78,68.154-66.517v-61.43H1129.739z"/>
	<path fill="#FFFFFF" d="M1093.88,313.968c-17.774,0-32.235-13.726-32.235-30.598v-47.976h-35.919v47.977
		c0,36.735,30.514,66.515,68.154,66.515h1.812v-35.918H1093.88z"/>
	<path fill="#FFFFFF" d="M915.074,311.387c-17.775,0-32.235-13.726-32.235-30.598v-10.51H846.92v10.511
		c0,36.735,30.514,66.515,68.154,66.515h1.812v-35.918H915.074z"/>
	<path fill="#FFFFFF" d="M950.933,254.792v25.997c0,16.872-14.461,30.598-32.234,30.598h-1.812v35.918h1.812
		c37.64,0,68.153-29.779,68.153-66.516v-25.997H950.933z"/>
	<path fill="#FFFFFF" d="M650.231,276.067v97.958c0,16.871-14.461,30.597-32.235,30.597h-3.624h-10.151v35.919h10.151h3.624
		c37.64,0,68.154-29.78,68.154-66.516v-97.958H650.231z"/>
	<rect x="650.231" y="102.328" fill="#FFFFFF" width="35.919" height="153.403"/>
	<path fill="#FFFFFF" d="M650.231,255.888v24.589c0,16.872-14.461,30.598-32.235,30.598h-3.624
		c-17.774,0-32.235-13.726-32.235-30.598v-10.04h-35.919v10.04c0,36.735,30.514,66.516,68.154,66.516h3.624
		c37.64,0,68.154-29.78,68.154-66.516v-24.589H650.231z"/>
</g>
</svg>
